<svg class="svg-standalone-icon" width="100%"
    viewBox="419.69677419354826 202.75483870967741 65.30322580645174 64.49032258064517">
    <g
        fill-rule="evenodd">
        <path
            d="M452.39355,202.75484c-20.32258,0 -32.69677,14.36129 -32.69677,32.24516c0,17.79355 12.37419,32.24516 32.69677,32.24516c20.23226,0 32.60645,-14.45161 32.60645,-32.24516c0,-17.88387 -12.37419,-32.24516 -32.60645,-32.24516zM452.39355,266.6129c-16.61935,0 -27.00645,-14.18065 -27.00645,-31.6129c0,-17.52258 10.3871,-31.6129 27.00645,-31.6129c16.52903,0 26.91613,14.09032 26.91613,31.6129c0,17.43226 -10.3871,31.6129 -26.91613,31.6129z"

            fill-rule="nonzero" style="fill: rgb(255, 255, 255);"></path>
        <path
            d="M446.60836,216.46901c-1.0761,1.58358 -1.94747,3.59045 -2.61585,6.01715c-0.66953,2.4267 -0.78487,4.84474 -0.34889,7.25529c0.05825,0.34889 0.17474,0.95095 0.34889,1.80791c0.17474,0.85984 0.2895,1.48439 0.34947,1.87596c0.05709,0.39157 0.14475,0.9648 0.26124,1.72256c0.11476,0.75488 0.16609,1.32868 0.15167,1.72026c-0.01442,0.39445 -0.02884,0.88002 -0.04268,1.46132c-0.01557,0.58188 -0.10207,1.03919 -0.26239,1.37367c-0.15917,0.33505 -0.35697,0.68107 -0.58764,1.04495c-0.23413,0.36562 -0.5392,0.66031 -0.91693,0.89329c-0.37715,0.23298 -0.82697,0.40887 -1.3506,0.52478c-1.10378,0.2895 -2.07722,0.10265 -2.92034,-0.56688c-0.84254,-0.67069 -1.43134,-1.56109 -1.76524,-2.68159c-0.33505,-1.1182 -0.55362,-2.30155 -0.65454,-3.55354c-0.10207,-1.2491 0.05017,-2.33846 0.45846,-3.26924c-1.51265,1.33964 -2.72427,2.80673 -3.6412,4.40473c-0.91578,1.598 -1.48151,3.15275 -1.70007,4.66251c-0.21683,1.51322 -0.3264,2.74791 -0.3264,3.70752c0,0.95845 0.07266,1.8725 0.21856,2.74676c0.26066,1.62626 0.89963,3.36324 1.9169,5.20805c1.01728,1.84424 2.54261,3.42206 4.57774,4.73171c0.89963,0.60956 1.8304,0.84196 2.79001,0.69433c0.9596,-0.14417 1.85924,-0.48442 2.7035,-1.02362c0.84139,-0.53574 1.67008,-1.25487 2.48494,-2.15681c0.81255,-0.89963 1.50977,-1.79407 2.09106,-2.68217c0.58245,-0.88579 1.08994,-1.76524 1.52591,-2.63661c0.93077,-1.91806 1.49708,-4.59734 1.70007,-8.04304c0.20242,-3.44224 0.01384,-5.73284 -0.5663,-6.86545c2.29579,2.32462 4.06737,4.70864 5.3182,7.1486c1.2491,2.44169 1.62799,5.11809 1.13434,8.02171c-0.14648,0.95845 -0.44463,1.96823 -0.89444,3.03049c-0.45097,1.06168 -0.99651,2.23062 -1.63433,3.50798c-0.29123,0.55362 -0.50114,0.97575 -0.6332,1.26583c-0.13033,0.2895 -0.30507,0.66665 -0.52248,1.13261c-0.21799,0.46481 -0.34889,0.80505 -0.39272,1.02362c-0.04325,0.21856 -0.08708,0.49422 -0.13091,0.82927c-0.04441,0.33448 -0.0075,0.55939 0.10899,0.67588c0.11591,0.11591 0.27508,0.25605 0.47923,0.41406c0.20357,0.15917 0.48672,0.23298 0.85061,0.21856c0.36274,-0.01326 0.80621,-0.05075 1.32984,-0.11072c0.5219,-0.05594 1.13377,-0.17243 1.83098,-0.34832c1.65567,-0.57899 2.97801,-1.07321 3.96703,-1.48151c0.98844,-0.40599 2.25946,-1.05303 3.8142,-1.93824c1.55417,-0.8881 2.81884,-1.81598 3.79229,-2.78943c0.97287,-0.97345 1.92556,-2.25888 2.85517,-3.85976c0.93135,-1.59857 1.61299,-3.369 2.04897,-5.31878c1.10378,-4.99757 0.45789,-9.9588 -1.9394,-14.886c-2.39671,-4.92721 -5.98024,-8.97439 -10.7454,-12.14156c0.63839,1.27967 1.2641,3.15275 1.87423,5.625c1.13204,4.62041 0.66896,6.8568 -1.395,6.71205c-0.43771,-0.05709 -0.9152,-0.18742 -1.43883,-0.39157c-2.29579,-0.9596 -4.04661,-2.41286 -5.25304,-4.35975c-1.20585,-1.94689 -1.84597,-4.49815 -1.91864,-7.65148c-0.07208,-3.15275 0.6332,-6.89371 2.11471,-11.22462c-0.37773,0.2324 -0.87137,0.57323 -1.48151,1.0242c-0.61013,0.45039 -1.66432,1.41576 -3.16024,2.89727c-1.49708,1.48439 -2.78367,3.01722 -3.85803,4.6008z"
            fill-rule="evenodd" style="fill: rgb(255, 255, 255);">
        </path>
    </g>
</svg>